<?xml version="1.0" standalone="no"?>
<!DOCTYPE svg PUBLIC "-//W3C//DTD SVG 20010904//EN"
 "http://www.w3.org/TR/2001/REC-SVG-20010904/DTD/svg10.dtd">
<svg version="1.0" xmlns="http://www.w3.org/2000/svg"
 width="450.000000pt" height="450.000000pt" viewBox="0 0 450.000000 450.000000"
 preserveAspectRatio="xMidYMid meet">
<metadata>
Created by potrace 1.14, written by Peter Selinger 2001-2017
</metadata>
<g transform="translate(0.000000,450.000000) scale(0.100000,-0.100000)"
fill="#000000" stroke="none">
<path d="M1617 4484 c-1 -1 -47 -4 -102 -8 -55 -3 -111 -8 -125 -11 -14 -3
-38 -8 -55 -10 -173 -30 -369 -102 -530 -193 -489 -278 -782 -776 -770 -1307
3 -120 6 -151 27 -255 59 -307 259 -636 509 -839 l41 -34 70 74 c39 41 134
142 213 224 78 83 159 168 179 189 45 49 332 350 365 384 24 24 24 26 8 51
-31 50 -58 103 -55 107 2 2 19 -10 38 -27 19 -16 54 -43 77 -58 43 -29 43 -29
25 -52 -52 -68 -97 -205 -101 -309 -5 -114 47 -271 120 -362 16 -20 29 -40 29
-45 0 -4 -37 -7 -82 -7 -47 1 -96 -4 -113 -11 -36 -14 -85 -69 -85 -93 0 -16
-25 -17 -298 -14 l-298 3 2 -78 c3 -91 10 -157 24 -233 6 -30 12 -65 14 -76
14 -78 106 -301 167 -404 74 -124 234 -310 332 -384 21 -16 36 -30 34 -32 -2
-2 -34 -8 -73 -13 -144 -21 -205 -31 -224 -36 -8 -2 -26 -6 -40 -9 -294 -54
-503 -147 -524 -232 -16 -61 57 -125 198 -178 114 -43 313 -92 456 -111 19 -3
60 -9 90 -14 116 -20 296 -38 570 -58 124 -9 931 -9 1072 0 124 8 233 16 278
22 19 2 64 7 100 11 36 3 72 7 81 9 8 2 40 6 70 9 30 3 65 8 79 11 14 3 43 7
65 10 53 8 286 59 350 78 173 50 301 135 291 193 -2 16 -5 32 -5 36 -2 18 -68
70 -125 97 -92 46 -295 104 -431 125 -22 4 -47 8 -55 11 -8 2 -35 6 -60 10
-98 12 -98 12 -45 54 62 49 212 211 268 289 73 101 156 260 196 375 17 48 28
87 25 87 -2 0 0 8 5 17 5 10 12 35 15 57 4 21 8 41 10 45 7 10 17 109 21 206
l5 90 -285 0 c-157 0 -291 2 -298 5 -7 3 -13 12 -13 20 -2 56 -44 109 -99 127
-16 5 -67 9 -112 8 -54 -1 -80 3 -76 10 37 62 56 75 138 92 11 2 38 9 60 15
33 9 135 33 271 63 12 3 80 19 150 35 71 17 139 33 152 35 13 3 20 10 17 15
-3 5 -19 53 -35 107 -17 54 -33 105 -35 114 -5 14 24 16 272 19 400 4 433 5
433 8 0 3 -66 113 -102 170 -9 15 -23 38 -31 52 -19 33 -258 424 -262 428 -3
4 -108 -50 -490 -253 -44 -24 -116 -62 -160 -85 -44 -23 -83 -45 -87 -48 -3
-4 9 -47 27 -96 51 -134 51 -138 13 -160 -18 -11 -35 -22 -38 -25 -3 -3 -40
-30 -82 -59 -75 -51 -78 -52 -82 -30 -5 24 -16 92 -18 105 -1 21 -43 113 -69
156 -16 26 -29 51 -29 55 0 4 13 15 28 25 16 9 61 48 100 86 181 179 273 390
269 619 -2 118 -7 125 -78 117 -113 -12 -296 -90 -398 -168 -128 -98 -245
-236 -300 -354 l-24 -52 -32 13 c-100 42 -317 62 -468 42 -32 -4 -93 -16 -135
-28 -42 -11 -86 -22 -97 -24 -17 -3 -28 13 -66 91 -26 52 -44 95 -40 95 3 -1
17 -7 31 -15 14 -8 28 -14 33 -15 4 0 28 22 55 49 76 79 482 498 545 565 33
34 106 109 164 168 l104 107 -21 18 c-12 10 -27 23 -34 28 -31 29 -124 95
-134 95 -5 0 -12 3 -14 8 -8 18 -226 128 -324 163 -102 36 -239 71 -334 84
-60 9 -278 23 -283 19z"/>
</g>
</svg>
